<svg width="24" height="24" viewBox="0 0 24 24" fill="none" xmlns="http://www.w3.org/2000/svg">
<path d="M18.5179 10.5492C18.6072 10.6385 18.6518 10.7412 18.6518 10.8572C18.6518 10.9733 18.6072 11.076 18.5179 11.1653L12.2768 17.4064C12.1876 17.4956 12.0849 17.5403 11.9688 17.5403C11.8527 17.5403 11.7501 17.4956 11.6608 17.4064L5.4197 11.1653C5.33041 11.076 5.28577 10.9733 5.28577 10.8572C5.28577 10.7412 5.33041 10.6385 5.4197 10.5492L6.08934 9.87957C6.17862 9.79028 6.2813 9.74564 6.39737 9.74564C6.51345 9.74564 6.61612 9.79028 6.70541 9.87957L11.9688 15.143L17.2322 9.87957C17.3215 9.79028 17.4242 9.74564 17.5402 9.74564C17.6563 9.74564 17.759 9.79028 17.8483 9.87957L18.5179 10.5492Z" fill="white"/>
</svg>
