<svg width="15" height="7" viewBox="0 0 15 7" fill="none" xmlns="http://www.w3.org/2000/svg">
<path d="M14.05 3.77653C14.05 3.84944 14.024 3.91194 13.9719 3.96403L10.9719 6.72965C10.8886 6.80257 10.7974 6.81819 10.6985 6.77653C10.5995 6.72965 10.55 6.65413 10.55 6.54997V4.79997H0.800049C0.727132 4.79997 0.667236 4.77653 0.620361 4.72965C0.573486 4.68278 0.550049 4.62288 0.550049 4.54997V3.04997C0.550049 2.97705 0.573486 2.91715 0.620361 2.87028C0.667236 2.8234 0.727132 2.79997 0.800049 2.79997H10.55V1.04997C10.55 0.94059 10.5995 0.865069 10.6985 0.823403C10.7974 0.781736 10.8886 0.794757 10.9719 0.862465L13.9719 3.59684C14.024 3.64892 14.05 3.70882 14.05 3.77653Z" fill="#E0502E"/>
</svg>
