<svg width="13" height="21" viewBox="0 0 13 21" fill="none" xmlns="http://www.w3.org/2000/svg">
<path d="M12.0526 2.12643C12.1865 2.26036 12.2535 2.41438 12.2535 2.58849C12.2535 2.7626 12.1865 2.91661 12.0526 3.05054L4.15751 10.9456L12.0526 18.8407C12.1865 18.9746 12.2535 19.1287 12.2535 19.3028C12.2535 19.4769 12.1865 19.6309 12.0526 19.7648L11.0481 20.7693C10.9142 20.9032 10.7602 20.9702 10.5861 20.9702C10.412 20.9702 10.258 20.9032 10.124 20.7693L0.762416 11.4077C0.628488 11.2738 0.561523 11.1197 0.561523 10.9456C0.561523 10.7715 0.628488 10.6175 0.762416 10.4836L10.124 1.12197C10.258 0.988041 10.412 0.921078 10.5861 0.921078C10.7602 0.921078 10.9142 0.988041 11.0481 1.12197L12.0526 2.12643Z" fill="#757575"/>
</svg>
