<svg width="15" height="16" viewBox="0 0 15 16" fill="none" xmlns="http://www.w3.org/2000/svg">
<g id="List &#226;&#134;&#146; Item" clip-path="url(#clip0_203_4736)">
<path id="Vector" d="M12.5729 8.30352V11.1428C12.5729 11.8511 12.3214 12.4568 11.8184 12.9598C11.3155 13.4627 10.7098 13.7142 10.0015 13.7142H2.57289C1.86456 13.7142 1.25891 13.4627 0.755929 12.9598C0.252953 12.4568 0.00146484 11.8511 0.00146484 11.1428V3.71423C0.00146484 3.0059 0.252953 2.40024 0.755929 1.89727C1.25891 1.39429 1.86456 1.1428 2.57289 1.1428H10.0015C10.3765 1.1428 10.7247 1.21721 11.0461 1.36602C11.1354 1.40769 11.189 1.47614 11.2068 1.57138C11.2247 1.67257 11.1979 1.75888 11.1265 1.8303L10.689 2.2678C10.6294 2.32733 10.561 2.35709 10.4836 2.35709C10.4658 2.35709 10.439 2.35114 10.4033 2.33923C10.2663 2.30352 10.1324 2.28566 10.0015 2.28566H2.57289C2.18004 2.28566 1.84373 2.42554 1.56396 2.7053C1.2842 2.98507 1.14432 3.32138 1.14432 3.71423V11.1428C1.14432 11.5357 1.2842 11.872 1.56396 12.1517C1.84373 12.4315 2.18004 12.5714 2.57289 12.5714H10.0015C10.3943 12.5714 10.7306 12.4315 11.0104 12.1517C11.2902 11.872 11.43 11.5357 11.43 11.1428V8.87495C11.43 8.79757 11.4568 8.73209 11.5104 8.67852L12.0818 8.10709C12.1413 8.04757 12.2098 8.0178 12.2872 8.0178C12.3229 8.0178 12.3586 8.02673 12.3943 8.04459C12.5134 8.09221 12.5729 8.17852 12.5729 8.30352ZM14.6354 3.93745L7.36754 11.2053C7.22468 11.3482 7.05504 11.4196 6.85861 11.4196C6.66218 11.4196 6.49254 11.3482 6.34968 11.2053L2.51039 7.36602C2.36754 7.22316 2.29611 7.05352 2.29611 6.85709C2.29611 6.66066 2.36754 6.49102 2.51039 6.34816L3.49254 5.36602C3.63539 5.22316 3.80504 5.15173 4.00146 5.15173C4.19789 5.15173 4.36754 5.22316 4.51039 5.36602L6.85861 7.71423L12.6354 1.93745C12.7783 1.79459 12.9479 1.72316 13.1443 1.72316C13.3408 1.72316 13.5104 1.79459 13.6533 1.93745L14.6354 2.91959C14.7783 3.06245 14.8497 3.23209 14.8497 3.42852C14.8497 3.62495 14.7783 3.79459 14.6354 3.93745Z" fill="#E0502E"/>
</g>
<defs>
<clipPath id="clip0_203_4736">
<rect width="14.86" height="16" fill="white" transform="matrix(1 0 0 -1 0 16)"/>
</clipPath>
</defs>
</svg>
