<svg width="31" height="30" viewBox="0 0 31 30" fill="none" xmlns="http://www.w3.org/2000/svg">
<g id="Icon" clip-path="url(#clip0_203_4767)">
<path id="Vector" d="M17.2494 0.93738C20.9213 0.93738 24.0658 2.24597 26.683 4.86316C29.3002 7.48035 30.6088 10.6444 30.6088 14.3553C30.6088 16.8553 29.9642 19.1503 28.6752 21.2401C27.3861 23.33 25.6674 24.9608 23.5189 26.1327C23.597 25.8202 23.6361 25.5077 23.6361 25.1952C23.597 24.7655 23.4994 24.3553 23.3431 23.9647C24.7494 23.0663 25.9213 21.8944 26.8588 20.4491C27.7963 19.0038 28.3627 17.4218 28.558 15.703L26.2142 14.3553L28.558 12.9491C28.2455 10.371 27.1615 8.14441 25.306 6.26941C23.4506 4.39441 21.2142 3.30066 18.597 2.98816L17.2494 5.33191L15.8431 2.98816C14.2025 3.18347 12.6791 3.73035 11.2728 4.62879C9.86657 5.52722 8.6947 6.66004 7.7572 8.02722C7.28845 7.44129 6.80017 6.99207 6.29236 6.67957C7.54236 4.92175 9.12439 3.52527 11.0384 2.49011C12.9525 1.45496 15.0228 0.93738 17.2494 0.93738ZM20.6478 22.9686C21.0385 23.2811 21.3412 23.5839 21.556 23.8768C21.7709 24.1698 21.9369 24.4335 22.0541 24.6678C22.1713 24.9022 22.2103 25.1659 22.1713 25.4589C22.1322 25.7518 22.0834 25.9764 22.0248 26.1327C21.9662 26.2889 21.8295 26.5038 21.6146 26.7772C21.3998 27.0507 21.2338 27.246 21.1166 27.3632C20.9994 27.4803 20.8041 27.6757 20.5306 27.9491C20.2572 28.2225 20.0814 28.3983 20.0033 28.4764C19.1439 29.3358 17.4154 29.2772 14.8177 28.3007C12.2201 27.3241 9.57361 25.4882 6.87829 22.7928C4.18298 20.0975 2.34704 17.4511 1.37048 14.8534C0.393918 12.2557 0.335325 10.5077 1.1947 9.60925C1.23376 9.60925 1.42907 9.42371 1.78064 9.05261C2.1322 8.68152 2.35681 8.45691 2.45447 8.37879C2.55212 8.30066 2.76697 8.13465 3.099 7.88074C3.43103 7.62683 3.70447 7.50965 3.91931 7.52918C4.13415 7.54871 4.39782 7.55847 4.71032 7.55847C5.02282 7.55847 5.34509 7.69519 5.67712 7.96863C6.00915 8.24207 6.35095 8.59363 6.70251 9.02332C8.0697 10.7421 8.3822 12.1093 7.64001 13.1249C7.48376 13.3593 7.19079 13.6913 6.76111 14.121L6.52673 14.3553C5.74548 15.1366 6.8197 16.9921 9.74939 19.9218C12.6791 22.8514 14.5345 23.9061 15.3158 23.0858C15.3549 23.0468 15.433 22.9686 15.5502 22.8514C15.9408 22.4608 16.2533 22.1776 16.4877 22.0018C16.722 21.8261 17.0443 21.6893 17.4545 21.5917C17.8646 21.494 18.3236 21.5624 18.8314 21.7968C19.3392 22.0311 19.9447 22.4218 20.6478 22.9686ZM11.2728 16.4061C11.2728 15.7811 11.4388 15.2245 11.7709 14.7362C12.1029 14.2479 12.474 13.8768 12.8842 13.6229C13.2943 13.369 13.6654 13.1151 13.9974 12.8612C14.3295 12.6073 14.4955 12.3632 14.4955 12.1288C14.4955 11.621 14.222 11.3671 13.6752 11.3671C13.4799 11.3671 13.2845 11.4354 13.0892 11.5721C12.8939 11.7089 12.7572 11.8358 12.6791 11.953L12.5619 12.1874L11.2142 11.2499C11.2142 11.2499 11.224 11.2303 11.2435 11.1913C11.2631 11.1522 11.3119 11.0741 11.39 10.9569C11.4681 10.8397 11.556 10.7323 11.6537 10.6346C11.7513 10.537 11.8685 10.4296 12.0052 10.3124C12.142 10.1952 12.2982 10.0878 12.474 9.99011C12.6498 9.89246 12.8549 9.81433 13.0892 9.75574C13.3236 9.69715 13.5775 9.66785 13.8509 9.66785C14.2806 9.66785 14.681 9.74597 15.0521 9.90222C15.4232 10.0585 15.7357 10.3124 15.9896 10.6639C16.2435 11.0155 16.3705 11.4452 16.3705 11.953C16.3705 12.4608 16.2142 12.9296 15.9017 13.3593C15.5892 13.7889 15.2474 14.1112 14.8763 14.3261C14.5052 14.5409 14.1537 14.7655 13.8217 14.9999C13.4896 15.2343 13.3236 15.4491 13.3236 15.6444H16.4877V17.2264H11.3314C11.2924 16.9139 11.2728 16.6405 11.2728 16.4061ZM17.2494 14.2968L20.1205 9.78504H22.347V13.9452H23.226V15.41H22.347V17.2264H20.5306V15.41H17.2494V14.2968ZM20.5306 13.9452V12.246L20.5892 11.4257C20.472 11.7382 20.3549 11.9921 20.2377 12.1874L19.0658 13.8866V13.9452H20.5306Z" fill="white"/>
</g>
<defs>
<clipPath id="clip0_203_4767">
<rect width="30" height="30" fill="white" transform="matrix(1 0 0 -1 0.699951 30)"/>
</clipPath>
</defs>
</svg>
