<svg width="30" height="30" viewBox="0 0 30 30" fill="none" xmlns="http://www.w3.org/2000/svg">
<g clip-path="url(#clip0_401_634)">
<path d="M27.8554 16.0705C26.159 13.4366 24.0329 11.4667 21.4771 10.1609C22.1579 11.3216 22.4983 12.5772 22.4983 13.9277C22.4983 15.9924 21.7645 17.7586 20.2968 19.2262C18.8292 20.6938 17.063 21.4277 14.9983 21.4277C12.9336 21.4277 11.1674 20.6938 9.69974 19.2262C8.23211 17.7586 7.49829 15.9924 7.49829 13.9277C7.49829 12.5772 7.83869 11.3216 8.5195 10.1609C5.96369 11.4667 3.83758 13.4366 2.14115 16.0705C3.62552 18.3585 5.48657 20.1805 7.7243 21.5365C9.96202 22.8925 12.3867 23.5705 14.9983 23.5705C17.6099 23.5705 20.0346 22.8925 22.2723 21.5365C24.51 20.1805 26.3711 18.3585 27.8554 16.0705ZM15.5675 10.2111C15.5675 10.2111 15.6065 10.1721 15.6847 10.094C15.7628 10.0158 15.8019 9.86516 15.8019 9.64195C15.8019 9.41874 15.7237 9.229 15.5675 9.07275C15.4112 8.9165 15.2215 8.83838 14.9983 8.83838C13.6032 8.83838 12.4062 9.33782 11.4073 10.3367C10.4084 11.3356 9.90901 12.5326 9.90901 13.9277C9.90901 14.1509 9.98713 14.3406 10.1434 14.4969C10.2996 14.6531 10.4894 14.7312 10.7126 14.7312C10.9358 14.7312 11.1255 14.6531 11.2818 14.4969C11.438 14.3406 11.5161 14.1509 11.5161 13.9277C11.5161 12.9678 11.8565 12.1475 12.5374 11.4667C13.2182 10.7859 14.0385 10.4455 14.9983 10.4455C15.2215 10.4455 15.4112 10.3674 15.5675 10.2111ZM29.6635 14.9154C29.8867 15.306 29.9983 15.6911 29.9983 16.0705C29.9983 16.45 29.8867 16.835 29.6635 17.2257C28.101 19.7926 26 21.849 23.3605 23.3947C20.7209 24.9405 17.9336 25.7134 14.9983 25.7134C12.063 25.7134 9.27563 24.9377 6.63613 23.3864C3.99662 21.835 1.89561 19.7815 0.333112 17.2257C0.109898 16.835 -0.00170898 16.45 -0.00170898 16.0705C-0.00170898 15.6911 0.109898 15.306 0.333112 14.9154C1.89561 12.3596 3.99662 10.306 6.63613 8.75467C9.27563 7.20333 12.063 6.42767 14.9983 6.42767C17.9336 6.42767 20.7209 7.20333 23.3605 8.75467C26 10.306 28.101 12.3596 29.6635 14.9154Z" fill="white"/>
</g>
<defs>
<clipPath id="clip0_401_634">
<rect width="30" height="30" fill="white" transform="matrix(1 0 0 -1 0 30)"/>
</clipPath>
</defs>
</svg>
