<svg width="8" height="14" viewBox="0 0 8 14" fill="none" xmlns="http://www.w3.org/2000/svg">
<g clip-path="url(#clip0_401_625)">
<path d="M5.41235 6.41321C5.41235 6.41321 5.51001 6.31555 5.70532 6.12024C5.90063 5.92493 5.99829 5.55123 5.99829 4.99915C5.99829 4.44706 5.80298 3.97571 5.41235 3.58508C5.02173 3.19446 4.55037 2.99915 3.99829 2.99915C3.44621 2.99915 2.97485 3.19446 2.58423 3.58508C2.1936 3.97571 1.99829 4.44706 1.99829 4.99915C1.99829 5.55123 2.1936 6.02258 2.58423 6.41321C2.97485 6.80383 3.44621 6.99915 3.99829 6.99915C4.55037 6.99915 5.02173 6.80383 5.41235 6.41321ZM7.99829 4.99915C7.99829 5.56685 7.91235 6.033 7.74048 6.39758L4.89673 12.4445C4.8134 12.6163 4.6897 12.7517 4.52563 12.8507C4.36157 12.9497 4.18579 12.9991 3.99829 12.9991C3.81079 12.9991 3.63501 12.9497 3.47095 12.8507C3.30688 12.7517 3.18579 12.6163 3.10767 12.4445L0.256104 6.39758C0.0842285 6.033 -0.00170898 5.56685 -0.00170898 4.99915C-0.00170898 3.89498 0.388916 2.95227 1.17017 2.17102C1.95142 1.38977 2.89412 0.999146 3.99829 0.999146C5.10246 0.999146 6.04517 1.38977 6.82642 2.17102C7.60767 2.95227 7.99829 3.89498 7.99829 4.99915Z" fill="white"/>
</g>
<defs>
<clipPath id="clip0_401_625">
<rect width="8" height="14" fill="white" transform="matrix(1 0 0 -1 0 14)"/>
</clipPath>
</defs>
</svg>
