<svg width="17" height="17" viewBox="0 0 17 17" fill="none" xmlns="http://www.w3.org/2000/svg">
<path d="M10.3858 6.76374V7.4066C10.3858 7.49365 10.354 7.56899 10.2904 7.6326C10.2268 7.69622 10.1514 7.72803 10.0644 7.72803H7.81438V9.97803C7.81438 10.0651 7.78258 10.1404 7.71896 10.204C7.65534 10.2676 7.58001 10.2995 7.49295 10.2995H6.8501C6.76304 10.2995 6.68771 10.2676 6.62409 10.204C6.56048 10.1404 6.52867 10.0651 6.52867 9.97803V7.72803H4.27867C4.19162 7.72803 4.11628 7.69622 4.05266 7.6326C3.98905 7.56899 3.95724 7.49365 3.95724 7.4066V6.76374C3.95724 6.67669 3.98905 6.60135 4.05266 6.53774C4.11628 6.47412 4.19162 6.44231 4.27867 6.44231H6.52867V4.19231C6.52867 4.10526 6.56048 4.02992 6.62409 3.96631C6.68771 3.90269 6.76304 3.87088 6.8501 3.87088H7.49295C7.58001 3.87088 7.65534 3.90269 7.71896 3.96631C7.78258 4.02992 7.81438 4.10526 7.81438 4.19231V6.44231H10.0644C10.1514 6.44231 10.2268 6.47412 10.2904 6.53774C10.354 6.60135 10.3858 6.67669 10.3858 6.76374ZM10.3507 10.2643C10.3507 10.2643 10.5708 10.0442 11.0111 9.60386C11.4514 9.16357 11.6715 8.32401 11.6715 7.08517C11.6715 5.84633 11.2312 4.78662 10.3507 3.90604C9.47008 3.02546 8.41037 2.58517 7.17153 2.58517C5.93269 2.58517 4.87298 3.02546 3.9924 3.90604C3.11182 4.78662 2.67153 5.84633 2.67153 7.08517C2.67153 8.32401 3.11182 9.38372 3.9924 10.2643C4.87298 11.1449 5.93269 11.5852 7.17153 11.5852C8.41037 11.5852 9.47008 11.1449 10.3507 10.2643ZM16.4427 14.5383C16.6905 14.7861 16.8144 15.0874 16.8144 15.4423C16.8144 15.7972 16.6888 16.1002 16.4377 16.3514C16.1866 16.6025 15.8836 16.728 15.5287 16.728C15.1671 16.728 14.8657 16.6008 14.6247 16.3463L11.1793 12.9111C9.98068 13.7414 8.64474 14.1566 7.17153 14.1566C6.21394 14.1566 5.2982 13.9708 4.42432 13.5991C3.55043 13.2275 2.79708 12.7252 2.16427 12.0924C1.53146 11.4596 1.02923 10.7063 0.657575 9.83238C0.285924 8.9585 0.100098 8.04276 0.100098 7.08517C0.100098 6.12758 0.285924 5.21184 0.657575 4.33796C1.02923 3.46408 1.53146 2.71073 2.16427 2.07792C2.79708 1.4451 3.55043 0.942871 4.42432 0.57122C5.2982 0.199568 6.21394 0.0137419 7.17153 0.0137419C8.12912 0.0137419 9.04485 0.199568 9.91874 0.57122C10.7926 0.942871 11.546 1.4451 12.1788 2.07792C12.8116 2.71073 13.3138 3.46408 13.6855 4.33796C14.0571 5.21184 14.243 6.12758 14.243 7.08517C14.243 8.55838 13.8278 9.89432 12.9974 11.093L16.4427 14.5383Z" fill="white"/>
</svg>
