<svg width="12" height="14" viewBox="0 0 12 14" fill="none" xmlns="http://www.w3.org/2000/svg">
<g clip-path="url(#clip0_401_631)">
<path d="M11.5283 9.68665C11.5283 9.82727 11.5023 10.0109 11.4502 10.2374C11.3981 10.464 11.3434 10.6424 11.2861 10.7726C11.1768 11.033 10.859 11.309 10.333 11.6007C9.84342 11.8663 9.35905 11.9991 8.87988 11.9991C8.73926 11.9991 8.60124 11.99 8.46582 11.9718C8.3304 11.9536 8.18066 11.921 8.0166 11.8741C7.85254 11.8273 7.73014 11.7895 7.64941 11.7609C7.56869 11.7322 7.42415 11.6788 7.21582 11.6007C7.00749 11.5226 6.87988 11.4757 6.83301 11.4601C6.32259 11.2778 5.86686 11.0616 5.46582 10.8116C4.80436 10.4002 4.11686 9.83769 3.40332 9.12415C2.68978 8.4106 2.12728 7.7231 1.71582 7.06165C1.46582 6.6606 1.24967 6.20487 1.06738 5.69446C1.05176 5.64758 1.00488 5.51998 0.926758 5.31165C0.848633 5.10331 0.795247 4.95878 0.766602 4.87805C0.737956 4.79732 0.700195 4.67493 0.65332 4.51086C0.606445 4.3468 0.573893 4.19706 0.555664 4.06165C0.537435 3.92623 0.52832 3.78821 0.52832 3.64758C0.52832 3.16842 0.661133 2.68404 0.926758 2.19446C1.21842 1.66842 1.49447 1.35071 1.75488 1.24133C1.88509 1.18404 2.06348 1.12935 2.29004 1.07727C2.5166 1.02519 2.7002 0.999146 2.84082 0.999146C2.91374 0.999146 2.96842 1.00696 3.00488 1.02258C3.09863 1.05383 3.23665 1.25175 3.41895 1.61633C3.47624 1.71529 3.55436 1.85592 3.65332 2.03821C3.75228 2.2205 3.84342 2.38586 3.92676 2.5343C4.01009 2.68274 4.09082 2.82206 4.16895 2.95227C4.18457 2.9731 4.23014 3.03821 4.30566 3.14758C4.38118 3.25696 4.43717 3.34941 4.47363 3.42493C4.51009 3.50045 4.52832 3.57467 4.52832 3.64758C4.52832 3.75175 4.4541 3.88196 4.30566 4.03821C4.15723 4.19446 3.99577 4.33769 3.82129 4.4679C3.64681 4.5981 3.48535 4.73612 3.33691 4.88196C3.18848 5.02779 3.11426 5.14758 3.11426 5.24133C3.11426 5.28821 3.12728 5.3468 3.15332 5.41711C3.17936 5.48743 3.2015 5.54081 3.21973 5.57727C3.23796 5.61373 3.27441 5.67623 3.3291 5.76477C3.38379 5.85331 3.41374 5.90279 3.41895 5.91321C3.81478 6.62675 4.2679 7.23873 4.77832 7.74915C5.28874 8.25956 5.90072 8.71269 6.61426 9.10852C6.62467 9.11373 6.67415 9.14368 6.7627 9.19836C6.85124 9.25305 6.91374 9.28951 6.9502 9.30774C6.98665 9.32597 7.04004 9.3481 7.11035 9.37415C7.18066 9.40019 7.23926 9.41321 7.28613 9.41321C7.37988 9.41321 7.49967 9.33899 7.64551 9.19055C7.79134 9.04211 7.92936 8.88066 8.05957 8.70618C8.18978 8.5317 8.33301 8.37024 8.48926 8.2218C8.64551 8.07336 8.77572 7.99915 8.87988 7.99915C8.9528 7.99915 9.02702 8.01737 9.10254 8.05383C9.17806 8.09029 9.27051 8.14628 9.37988 8.2218C9.48926 8.29732 9.55436 8.3429 9.5752 8.35852C9.7054 8.43665 9.84473 8.51737 9.99316 8.60071C10.1416 8.68404 10.307 8.77519 10.4893 8.87415C10.6715 8.9731 10.8122 9.05123 10.9111 9.10852C11.2757 9.29081 11.4736 9.42883 11.5049 9.52258C11.5205 9.55904 11.5283 9.61373 11.5283 9.68665Z" fill="white"/>
</g>
<defs>
<clipPath id="clip0_401_631">
<rect width="11" height="14" fill="white" transform="matrix(1 0 0 -1 0.530029 14)"/>
</clipPath>
</defs>
</svg>
