<svg width="15" height="17" viewBox="0 0 15 17" fill="none" xmlns="http://www.w3.org/2000/svg">
<g id="Icon" clip-path="url(#clip0_203_4862)">
<path id="Vector" d="M10.1533 9.90444L12.8854 7.25265L9.11754 6.69908L7.43004 3.28836L5.74254 6.69908L1.97468 7.25265L4.70682 9.90444L4.05504 13.6634L7.43004 11.8866L10.7961 13.6634L10.1533 9.90444ZM14.8586 6.71694C14.8586 6.84789 14.7812 6.99075 14.6265 7.14551L11.3854 10.3062L12.1533 14.7705C12.1592 14.8122 12.1622 14.8717 12.1622 14.9491C12.1622 15.2467 12.0402 15.3955 11.7961 15.3955C11.683 15.3955 11.564 15.3598 11.439 15.2884L7.43004 13.1812L3.42111 15.2884C3.29016 15.3598 3.17111 15.3955 3.06397 15.3955C2.93897 15.3955 2.84522 15.3524 2.78272 15.266C2.72022 15.1797 2.68897 15.0741 2.68897 14.9491C2.68897 14.9134 2.69492 14.8538 2.70682 14.7705L3.47468 10.3062L0.224679 7.14551C0.0758696 6.98479 0.00146484 6.84194 0.00146484 6.71694C0.00146484 6.4967 0.168132 6.35979 0.501465 6.30622L4.98361 5.65444L6.99254 1.59194C7.10563 1.34789 7.25147 1.22586 7.43004 1.22586C7.60861 1.22586 7.75444 1.34789 7.86754 1.59194L9.87646 5.65444L14.3586 6.30622C14.6919 6.35979 14.8586 6.4967 14.8586 6.71694Z" fill="white"/>
</g>
<defs>
<clipPath id="clip0_203_4862">
<rect width="14.86" height="16" fill="white" transform="matrix(1 0 0 -1 0 16.9399)"/>
</clipPath>
</defs>
</svg>
