<svg width="7" height="16" viewBox="0 0 7 16" fill="none" xmlns="http://www.w3.org/2000/svg">
<g id="Icon" clip-path="url(#clip0_469_762)">
<path id="Vector" d="M5.72444 7.5971C5.83753 7.71019 5.89408 7.84412 5.89408 7.99888C5.89408 8.15365 5.83753 8.28757 5.72444 8.40067L1.72444 12.4007C1.61134 12.5138 1.47741 12.5703 1.32265 12.5703C1.16789 12.5703 1.03396 12.5138 0.920864 12.4007C0.807768 12.2876 0.751221 12.1536 0.751221 11.9989V3.99888C0.751221 3.84412 0.807768 3.71019 0.920864 3.5971C1.03396 3.484 1.16789 3.42745 1.32265 3.42745C1.47741 3.42745 1.61134 3.484 1.72444 3.5971L5.72444 7.5971Z" fill="#F4AB01"/>
</g>
<defs>
<clipPath id="clip0_469_762">
<rect width="5.72" height="16" fill="white" transform="matrix(1 0 0 -1 0.75 16)"/>
</clipPath>
</defs>
</svg>
