<svg width="75" height="25" viewBox="0 0 75 25" fill="none" xmlns="http://www.w3.org/2000/svg">
<path fill-rule="evenodd" clip-rule="evenodd" d="M9.67406 15.3949L13.4495 15.4712L13.4782 15.7832L6.4585 17.2255L11.9429 4.63184L17.4011 17.1675H15.2122L11.9624 9.54669L9.67406 15.3949Z" fill="#E3E3E3"/>
<path d="M4.13477 20.5152L4.12067 20.5017L4.10573 20.4892C3.14578 19.6822 0.787661 17.2368 0.604117 12.8458L0.604042 0.71701L12.3075 0.720475L12.3082 0.720474C16.8257 0.717005 19.21 2.77697 20.2659 3.73978C24.8274 8.11254 24.9731 15.3438 20.5901 19.8956C16.1865 24.4689 8.68398 24.8707 4.13477 20.5152Z" stroke="#E3E3E3" stroke-width="1.20808"/>
<path d="M28.9203 11.4678C28.3612 11.0781 28.0816 10.5275 28.0816 9.81586C28.0816 9.10424 28.3612 8.55783 28.9203 8.1766C29.4837 7.79538 30.208 7.60477 31.0933 7.60477H33.1963C33.1963 7.10918 33.0926 6.76397 32.885 6.56912C32.6775 6.37427 32.3132 6.27685 31.7922 6.27685C31.2754 6.27685 30.9111 6.40604 30.6993 6.66442C30.4918 6.91857 30.2355 7.04565 29.9305 7.04565H28.9838C28.8695 7.04565 28.7742 7.00964 28.6979 6.93763C28.6259 6.86139 28.5899 6.7682 28.5899 6.65807C28.5899 5.4424 29.7442 4.83456 32.0527 4.83456C33.0608 4.83456 33.8698 5.06118 34.4798 5.51441C35.0897 5.9634 35.3947 6.66019 35.3947 7.60477V11.5377C35.3947 11.6521 35.3587 11.7453 35.2867 11.8173C35.2147 11.8893 35.1215 11.9253 35.0071 11.9253H33.7809C33.6665 11.9253 33.5733 11.8893 33.5013 11.8173C33.4293 11.741 33.3933 11.6478 33.3933 11.5377V11.3407C32.724 11.8194 31.951 12.0566 31.0742 12.0524C30.2016 12.0524 29.4837 11.8575 28.9203 11.4678ZM31.2458 9.04706C30.9492 9.04706 30.7142 9.11907 30.5405 9.26309C30.3711 9.4071 30.2863 9.59348 30.2863 9.82221C30.2863 10.0509 30.3753 10.2394 30.5532 10.3877C30.7311 10.5359 30.9831 10.6101 31.3093 10.6101C31.9616 10.6101 32.5906 10.4195 33.1963 10.0382V9.04706H31.2458Z" fill="#E3E3E3"/>
<path d="M42.4308 6.57547L41.4523 6.53735C40.8805 6.53735 40.3341 6.8508 39.8131 7.4777V11.5377C39.8131 11.6521 39.775 11.7453 39.6987 11.8173C39.6267 11.8893 39.5356 11.9253 39.4255 11.9253H38.0023C37.8879 11.9253 37.7947 11.8893 37.7227 11.8173C37.6507 11.7453 37.6147 11.6521 37.6147 11.5377V5.35556C37.6147 5.2412 37.6507 5.14801 37.7227 5.076C37.799 4.99976 37.8921 4.96163 38.0023 4.96163H39.4255C39.5399 4.96163 39.6331 4.99976 39.7051 5.076C39.7771 5.14801 39.8131 5.2412 39.8131 5.35556V5.75585C40.2451 5.4424 40.6602 5.21155 41.0584 5.06329C41.4608 4.91081 41.986 4.83456 42.6341 4.83456C42.7485 4.83456 42.8417 4.87268 42.9137 4.94893C42.9899 5.02094 43.028 5.11201 43.028 5.22214V6.1879C43.028 6.30226 42.9899 6.39545 42.9137 6.46746C42.8417 6.53947 42.7485 6.57547 42.6341 6.57547H42.4308Z" fill="#E3E3E3"/>
<path d="M44.5936 3.20801C44.5936 3.09365 44.6296 3.00046 44.7016 2.92845C44.7779 2.85221 44.871 2.81409 44.9812 2.81409H46.4044C46.5145 2.81409 46.6056 2.85221 46.6776 2.92845C46.7539 3.00046 46.792 3.09365 46.792 3.20801V5.1586C47.4782 4.94257 48.0902 4.83456 48.6282 4.83456C49.6702 4.83456 50.4983 5.14589 51.1125 5.76855C51.7267 6.38698 52.0338 7.28073 52.0338 8.44981C52.0338 10.8515 50.6889 12.0524 47.9992 12.0524C47.385 12.0524 46.7475 11.9846 46.0867 11.849C45.4302 11.7093 44.9325 11.5398 44.5936 11.3407V3.20801ZM46.792 6.6263V10.375C47.1563 10.4724 47.6201 10.5211 48.1834 10.5211C48.7468 10.5211 49.1513 10.358 49.397 10.0319C49.6469 9.70573 49.7719 9.17837 49.7719 8.44981C49.7719 7.72126 49.649 7.1939 49.4033 6.86774C49.1619 6.53735 48.751 6.37215 48.1707 6.37215C47.798 6.37215 47.3384 6.45687 46.792 6.6263Z" fill="#E3E3E3"/>
<path d="M53.8598 3.63371V3.41769C53.8598 3.19319 53.9234 3.01529 54.0504 2.88398C54.1817 2.75267 54.3618 2.68701 54.5905 2.68701H55.3784C55.6029 2.68701 55.7808 2.75267 55.9121 2.88398C56.0434 3.01105 56.109 3.18895 56.109 3.41769V3.63371C56.109 3.85821 56.0434 4.03611 55.9121 4.16742C55.785 4.29873 55.6071 4.36439 55.3784 4.36439H54.5905C54.366 4.36439 54.1881 4.29873 54.0568 4.16742C53.9255 4.03611 53.8598 3.85821 53.8598 3.63371ZM53.8852 11.5377V5.50805C53.8852 5.39369 53.9212 5.3005 53.9933 5.22849C54.0695 5.15648 54.1627 5.12048 54.2728 5.12048H55.696C55.8104 5.12048 55.9036 5.1586 55.9756 5.23484C56.0476 5.30685 56.0836 5.39792 56.0836 5.50805V11.5377C56.0836 11.6521 56.0455 11.7453 55.9693 11.8173C55.8972 11.8893 55.8062 11.9253 55.696 11.9253H54.2728C54.1584 11.9253 54.0653 11.8893 53.9933 11.8173C53.9212 11.7453 53.8852 11.6521 53.8852 11.5377Z" fill="#E3E3E3"/>
<path d="M59.7014 9.86669C60.2732 9.86669 60.5592 10.1547 60.5592 10.7308V11.1311C60.5592 11.3979 60.485 11.6076 60.3368 11.7601C60.1928 11.9126 59.981 11.9888 59.7014 11.9888H58.9199C58.6403 11.9888 58.4264 11.9126 58.2782 11.7601C58.1342 11.6076 58.0622 11.3979 58.0622 11.1311V10.7308C58.0622 10.4512 58.1363 10.2373 58.2845 10.0891C58.4328 9.94081 58.6446 9.86669 58.9199 9.86669H59.7014ZM58.9199 6.9567C58.3481 6.9567 58.0622 6.66866 58.0622 6.09259V5.69231C58.0622 5.42545 58.1363 5.21578 58.2845 5.06329C58.4328 4.91081 58.6446 4.83456 58.9199 4.83456H59.7014C59.981 4.83456 60.1928 4.91081 60.3368 5.06329C60.485 5.21578 60.5592 5.42545 60.5592 5.69231V6.09259C60.5592 6.66866 60.2732 6.9567 59.7014 6.9567H58.9199Z" fill="#E3E3E3"/>
<path d="M62.5186 11.5377V5.35556C62.5186 5.2412 62.5546 5.14801 62.6267 5.076C62.7029 4.99976 62.7961 4.96163 62.9062 4.96163H64.3294C64.4438 4.96163 64.537 4.99976 64.609 5.076C64.681 5.14801 64.717 5.2412 64.717 5.35556V5.75585C65.022 5.45934 65.3206 5.23273 65.6129 5.076C65.9094 4.91504 66.2652 4.83456 66.6803 4.83456C67.6673 4.83456 68.4149 5.2412 68.9232 6.05447C69.711 5.23696 70.5179 4.83032 71.3439 4.83456C72.1741 4.83456 72.8286 5.08447 73.3072 5.5843C73.7901 6.07989 74.0315 6.84868 74.0315 7.89069V11.5377C74.0315 11.6521 73.9955 11.7453 73.9235 11.8173C73.8515 11.8893 73.7583 11.9253 73.644 11.9253H72.2271C72.1127 11.9253 72.0174 11.8893 71.9412 11.8173C71.8692 11.741 71.8332 11.6478 71.8332 11.5377V7.89069C71.8332 6.8741 71.4646 6.36792 70.7276 6.37215C70.2786 6.37215 69.8148 6.69619 69.3362 7.34427C69.3616 7.52641 69.3743 7.70855 69.3743 7.89069V11.5377C69.3743 11.6521 69.3362 11.7453 69.2599 11.8173C69.1879 11.8893 69.0968 11.9253 68.9867 11.9253H67.5698C67.4555 11.9253 67.3602 11.8893 67.2839 11.8173C67.2119 11.741 67.1759 11.6478 67.1759 11.5377V7.89069C67.1759 6.8741 66.8074 6.36792 66.0704 6.37215C65.6002 6.37215 65.1491 6.67501 64.717 7.28073V11.5377C64.717 11.6521 64.6789 11.7453 64.6027 11.8173C64.5306 11.8893 64.4396 11.9253 64.3294 11.9253H62.9062C62.7919 11.9253 62.6987 11.8893 62.6267 11.8173C62.5546 11.7453 62.5186 11.6521 62.5186 11.5377Z" fill="#E3E3E3"/>
<path d="M29.922 20.3052C29.3903 20.3052 28.9451 20.1183 28.5864 19.7443C28.2302 19.3703 28.0521 18.8348 28.0521 18.1378C28.0521 17.4382 28.2366 16.9026 28.6054 16.5312C28.9769 16.1572 29.4755 15.9703 30.1013 15.9703C30.4244 15.9703 30.792 16.0351 31.2041 16.1649V14.9934C31.2041 14.9247 31.2258 14.8687 31.269 14.8255C31.3148 14.7797 31.3708 14.7568 31.4369 14.7568H32.2879C32.3566 14.7568 32.4125 14.7797 32.4558 14.8255C32.5016 14.8687 32.5245 14.9247 32.5245 14.9934V19.9961C32.5245 20.0623 32.5016 20.1183 32.4558 20.1641C32.4125 20.2073 32.3566 20.2289 32.2879 20.2289H31.5552C31.4865 20.2289 31.4306 20.2073 31.3873 20.1641C31.3441 20.1183 31.3224 20.0623 31.3224 19.9961V19.8779C30.9205 20.1628 30.4537 20.3052 29.922 20.3052ZM30.3761 16.8937C30.025 16.8937 29.777 16.993 29.632 17.1914C29.4869 17.3873 29.4144 17.7027 29.4144 18.1378C29.4144 18.5728 29.4831 18.8895 29.6205 19.0879C29.7579 19.2864 29.9639 19.3856 30.2387 19.3856C30.516 19.3856 30.8378 19.2711 31.2041 19.0421V17.0464C30.876 16.9446 30.5999 16.8937 30.3761 16.8937Z" fill="#E3E3E3"/>
<path d="M34.0738 15.249V15.1193C34.0738 14.9845 34.1119 14.8776 34.1883 14.7987C34.2671 14.7199 34.3752 14.6805 34.5126 14.6805H34.9858C35.1206 14.6805 35.2275 14.7199 35.3064 14.7987C35.3852 14.8751 35.4246 14.9819 35.4246 15.1193V15.249C35.4246 15.3839 35.3852 15.4907 35.3064 15.5696C35.23 15.6484 35.1232 15.6879 34.9858 15.6879H34.5126C34.3778 15.6879 34.2709 15.6484 34.1921 15.5696C34.1132 15.4907 34.0738 15.3839 34.0738 15.249ZM34.089 19.9961V16.3748C34.089 16.3061 34.1107 16.2501 34.1539 16.2069C34.1997 16.1636 34.2557 16.142 34.3218 16.142H35.1766C35.2453 16.142 35.3013 16.1649 35.3445 16.2107C35.3878 16.2539 35.4094 16.3086 35.4094 16.3748V19.9961C35.4094 20.0648 35.3865 20.1208 35.3407 20.1641C35.2974 20.2073 35.2428 20.2289 35.1766 20.2289H34.3218C34.2531 20.2289 34.1972 20.2073 34.1539 20.1641C34.1107 20.1208 34.089 20.0648 34.089 19.9961Z" fill="#E3E3E3"/>
<path d="M38.6683 19.9084C38.0908 19.9084 37.6239 19.7341 37.2678 19.3856C36.9142 19.0371 36.7374 18.5537 36.7374 17.9355C36.7374 17.3173 36.9396 16.8352 37.3441 16.4892C37.7486 16.1433 38.3286 15.9703 39.0842 15.9703C39.4531 15.9703 39.836 16.0122 40.2328 16.0962C40.6297 16.1776 40.9286 16.2781 41.1296 16.3977V19.9313C41.1296 20.4986 40.9426 20.9171 40.5686 21.1867C40.1947 21.459 39.6693 21.5951 38.9926 21.5951C38.3185 21.5951 37.7982 21.5098 37.4319 21.3394C37.0681 21.1715 36.8862 20.8929 36.8862 20.5037C36.8862 20.435 36.9078 20.3778 36.9511 20.332C36.9968 20.2887 37.0541 20.2671 37.1228 20.2671H37.6914C37.8745 20.2671 38.0208 20.3345 38.1302 20.4693C38.2701 20.6423 38.5182 20.7288 38.8743 20.7288C39.233 20.7288 39.4785 20.6703 39.6108 20.5533C39.7431 20.4363 39.8092 20.2289 39.8092 19.9313V19.7519C39.4022 19.8562 39.0219 19.9084 38.6683 19.9084ZM39.0041 16.8937C38.4011 16.8912 38.0997 17.2397 38.0997 17.9393C38.0997 18.6364 38.3935 18.9849 38.9812 18.9849C39.2254 18.9849 39.5014 18.9467 39.8092 18.8704V16.9777C39.5905 16.9192 39.3221 16.8912 39.0041 16.8937Z" fill="#E3E3E3"/>
<path d="M42.6827 15.249V15.1193C42.6827 14.9845 42.7209 14.8776 42.7972 14.7987C42.876 14.7199 42.9842 14.6805 43.1215 14.6805H43.5947C43.7296 14.6805 43.8364 14.7199 43.9153 14.7987C43.9941 14.8751 44.0336 14.9819 44.0336 15.1193V15.249C44.0336 15.3839 43.9941 15.4907 43.9153 15.5696C43.8389 15.6484 43.7321 15.6879 43.5947 15.6879H43.1215C42.9867 15.6879 42.8799 15.6484 42.801 15.5696C42.7221 15.4907 42.6827 15.3839 42.6827 15.249ZM42.698 19.9961V16.3748C42.698 16.3061 42.7196 16.2501 42.7628 16.2069C42.8086 16.1636 42.8646 16.142 42.9307 16.142H43.7855C43.8542 16.142 43.9102 16.1649 43.9534 16.2107C43.9967 16.2539 44.0183 16.3086 44.0183 16.3748V19.9961C44.0183 20.0648 43.9954 20.1208 43.9496 20.1641C43.9064 20.2073 43.8517 20.2289 43.7855 20.2289H42.9307C42.862 20.2289 42.8061 20.2073 42.7628 20.1641C42.7196 20.1208 42.698 20.0648 42.698 19.9961Z" fill="#E3E3E3"/>
<path d="M47.5748 19.4009L48.0976 19.3551H48.2388C48.3075 19.3551 48.3635 19.3767 48.4067 19.4199C48.4525 19.4632 48.4754 19.5191 48.4754 19.5878V19.9961C48.4754 20.0521 48.4525 20.103 48.4067 20.1488C48.3635 20.192 48.3075 20.2188 48.2388 20.2289C47.9793 20.2798 47.641 20.3052 47.2237 20.3052C46.1298 20.3052 45.5829 19.7328 45.5829 18.588V14.9934C45.5829 14.9247 45.6045 14.8687 45.6477 14.8255C45.6935 14.7797 45.7495 14.7568 45.8156 14.7568H46.6704C46.7366 14.7568 46.7913 14.7797 46.8345 14.8255C46.8803 14.8687 46.9032 14.9247 46.9032 14.9934V16.2679H47.9679C48.034 16.2679 48.0887 16.2895 48.132 16.3328C48.1777 16.376 48.2006 16.432 48.2006 16.5007V16.9548C48.2006 17.0235 48.1777 17.0794 48.132 17.1227C48.0887 17.1659 48.034 17.1876 47.9679 17.1876H46.9032V18.588C46.9032 18.8475 46.9643 19.0485 47.0864 19.191C47.2085 19.3309 47.3713 19.4009 47.5748 19.4009Z" fill="#E3E3E3"/>
<path d="M49.9407 19.9542C49.6049 19.7201 49.437 19.3894 49.437 18.962C49.437 18.5346 49.6049 18.2064 49.9407 17.9775C50.2791 17.7485 50.7141 17.634 51.2458 17.634H52.5089C52.5089 17.3364 52.4466 17.1291 52.3219 17.012C52.1973 16.895 51.9785 16.8365 51.6656 16.8365C51.3552 16.8365 51.1364 16.9141 51.0092 17.0693C50.8846 17.2219 50.7307 17.2982 50.5475 17.2982H49.9789C49.9102 17.2982 49.853 17.2766 49.8072 17.2334C49.7639 17.1876 49.7423 17.1316 49.7423 17.0655C49.7423 16.3353 50.4355 15.9703 51.822 15.9703C52.4275 15.9703 52.9134 16.1064 53.2797 16.3786C53.6461 16.6482 53.8292 17.0667 53.8292 17.634V19.9961C53.8292 20.0648 53.8076 20.1208 53.7644 20.1641C53.7211 20.2073 53.6652 20.2289 53.5965 20.2289H52.86C52.7913 20.2289 52.7353 20.2073 52.6921 20.1641C52.6488 20.1183 52.6272 20.0623 52.6272 19.9961V19.8779C52.2253 20.1653 51.761 20.3078 51.2344 20.3052C50.7103 20.3052 50.2791 20.1882 49.9407 19.9542ZM51.3374 18.5003C51.1593 18.5003 51.0181 18.5435 50.9138 18.63C50.8121 18.7165 50.7612 18.8285 50.7612 18.9658C50.7612 19.1032 50.8146 19.2164 50.9215 19.3055C51.0283 19.3945 51.1797 19.439 51.3756 19.439C51.7673 19.439 52.1451 19.3245 52.5089 19.0956V18.5003H51.3374Z" fill="#E3E3E3"/>
<path d="M55.3824 19.9961V14.9934C55.3824 14.9247 55.404 14.8687 55.4472 14.8255C55.493 14.7797 55.549 14.7568 55.6151 14.7568H56.4699C56.5361 14.7568 56.5908 14.7797 56.634 14.8255C56.6798 14.8687 56.7027 14.9247 56.7027 14.9934V19.9961C56.7027 20.0623 56.6798 20.1183 56.634 20.1641C56.5908 20.2073 56.5361 20.2289 56.4699 20.2289H55.6151C55.549 20.2289 55.493 20.2073 55.4472 20.1641C55.404 20.1183 55.3824 20.0623 55.3824 19.9961Z" fill="#E3E3E3"/>
</svg>
